<?xml version="1.0" encoding="UTF-8"?>
<!DOCTYPE svg PUBLIC "-//W3C//DTD SVG 1.1//EN" "http://www.w3.org/Graphics/SVG/1.1/DTD/svg11.dtd">
<!-- Creator: CorelDRAW X7 -->
<svg xmlns="http://www.w3.org/2000/svg" xml:space="preserve" width="29.7605mm" height="36.9324mm" version="1.1" style="shape-rendering:geometricPrecision; text-rendering:geometricPrecision; image-rendering:optimizeQuality; fill-rule:evenodd; clip-rule:evenodd"
viewBox="0 0 1572 1951"
 xmlns:xlink="http://www.w3.org/1999/xlink">
 <defs>
  <style type="text/css">
   <![CDATA[
    .fil1 {fill:black}
    .fil0 {fill:#FFF000;fill-opacity:0.501961}
   ]]>
  </style>
 </defs>
 <g id="Layer_x0020_1">
  <metadata id="CorelCorpID_0Corel-Layer"/>
  <path class="fil0" d="M1143 1093c237,0 429,192 429,429 0,237 -192,429 -429,429 -237,0 -429,-192 -429,-429 0,-237 192,-429 429,-429z"/>
  <g id="_289801080">
   <path class="fil1" d="M105 582c-79,-3 -104,-17 -105,28 24,16 73,12 107,14l29 97c-35,24 -112,20 -99,73 29,10 80,-23 117,-32 14,18 29,46 44,63 20,23 38,36 55,55 -73,126 -97,330 -94,485 1,54 18,139 15,182 -38,18 -52,23 -71,54 -22,34 -16,79 12,101 44,36 178,27 228,6 64,-28 86,-81 87,-172 0,-48 0,-223 -11,-254l-28 -1c-49,98 83,375 -108,400 -175,23 -171,-48 -127,-77 91,-60 66,38 47,-206 -12,-151 15,-379 88,-493 46,21 72,40 130,56 54,15 115,21 174,21 178,1 200,-41 305,-80 11,27 37,110 67,74 10,-31 -25,-77 -34,-101 32,-38 70,-65 90,-116 41,9 97,43 131,35l5 -27c-24,-22 -86,-29 -114,-48 18,-39 17,-64 29,-94 10,-25 105,11 101,-49 -31,-12 -62,0 -99,0 8,-120 -26,-158 -47,-229 -7,-22 16,-141 -1,-251 -20,-122 -52,-111 -139,-57 -57,36 -103,85 -145,130 -48,-4 -91,-20 -149,-22 -53,-2 -106,9 -154,21 -40,-32 -67,-74 -147,-128 -81,-55 -121,-66 -142,50 -20,115 1,228 -7,258 -9,32 -19,31 -33,104 -9,45 -9,85 -7,130zm43 -1c25,18 84,8 116,29l1 23c-27,16 -68,-1 -108,-3 1,27 13,62 25,80 15,-3 26,-6 42,-9 64,-13 70,27 31,37 -14,4 -40,8 -56,11 28,66 88,110 149,141 137,68 354,70 485,2 54,-29 129,-88 150,-144 -33,-8 -91,-11 -75,-45 14,-21 60,1 95,6 15,-22 21,-55 26,-83 -34,2 -76,16 -105,8 -9,-34 0,-36 35,-41 26,-3 51,-7 76,-10 1,-204 -62,-189 -50,-271 15,-107 7,-168 -11,-269 -65,25 -177,128 -211,176 -38,-2 -69,-27 -168,-31 -41,-1 -162,25 -169,24 -16,-4 -15,-10 -25,-20 -40,-44 -143,-138 -194,-149 -27,81 -23,192 -15,282 4,49 -62,112 -44,256z"/>
   <path class="fil1" d="M965 988c-121,21 -204,74 -257,143 -62,78 -87,190 -51,309 17,54 58,92 45,149 -12,55 -115,208 157,79 77,-36 31,-10 161,-1 431,32 556,-424 275,-616 -82,-56 -208,-84 -330,-63zm-251 689c25,1 98,-35 124,-47 76,-35 61,-19 144,-8 215,29 411,-74 420,-279 5,-114 -57,-196 -112,-242 -207,-175 -679,-51 -598,305 34,147 91,86 22,271z"/>
   <path class="fil1" d="M532 601c-10,41 9,55 35,70 1,38 1,79 -30,90 -50,18 -32,-35 -81,-25 -13,37 8,54 43,64 43,13 64,-8 85,-24 63,50 165,3 131,-32 -5,-5 5,-9 -18,-6 -14,2 -30,25 -62,20 -37,-7 -29,-45 -28,-82 21,-16 45,-25 43,-66 -36,-24 -73,-24 -118,-9z"/>
   <path class="fil1" d="M365 438c-47,28 -21,136 38,102 42,-24 21,-137 -38,-102z"/>
   <path class="fil1" d="M765 438c-47,28 -21,136 38,102 41,-24 21,-137 -38,-102z"/>
   <g>
    <path class="fil1" d="M839 1232c0,15 14,51 20,68 6,18 55,168 59,175 3,5 8,8 13,8l6 0c8,-1 16,-7 16,-18 0,-7 -8,-26 -10,-34 -8,-24 -65,-202 -71,-208 -4,-4 -8,-7 -12,-7l-5 0c-9,1 -16,8 -16,16z"/>
    <path class="fil1" d="M1129 1235c0,6 17,55 20,65 6,17 55,170 61,176 3,4 8,7 13,7l5 0c8,-1 15,-7 15,-20 0,-8 -64,-195 -74,-223 -5,-16 -6,-24 -24,-24l0 0c-5,0 -9,3 -12,6 -3,3 -4,7 -4,13z"/>
    <path class="fil1" d="M984 1232c0,12 35,112 42,132l37 111c3,5 8,8 14,8l5 0c8,-1 16,-7 16,-18 0,-8 -64,-197 -74,-225 -1,-5 -3,-12 -5,-16 -4,-5 -9,-8 -14,-8l-4 0c-9,1 -17,7 -17,16z"/>
   </g>
  </g>
 </g>
</svg>
