<?xml version="1.0" encoding="UTF-8"?>
<!DOCTYPE svg PUBLIC "-//W3C//DTD SVG 1.1//EN" "http://www.w3.org/Graphics/SVG/1.1/DTD/svg11.dtd">
<!-- Creator: CorelDRAW X7 -->
<svg xmlns="http://www.w3.org/2000/svg" xml:space="preserve" width="27.7711mm" height="36.8946mm" version="1.1" style="shape-rendering:geometricPrecision; text-rendering:geometricPrecision; image-rendering:optimizeQuality; fill-rule:evenodd; clip-rule:evenodd"
viewBox="0 0 847 1125"
 xmlns:xlink="http://www.w3.org/1999/xlink">
 <defs>
  <style type="text/css">
   <![CDATA[
    .fil1 {fill:black}
    .fil2 {fill:black;fill-rule:nonzero}
    .fil0 {fill:#FFF000;fill-opacity:0.501961}
   ]]>
  </style>
 </defs>
 <g id="Layer_x0020_1">
  <metadata id="CorelCorpID_0Corel-Layer"/>
  <path class="fil0" d="M599 630c137,0 248,111 248,248 0,136 -111,247 -248,247 -136,0 -247,-111 -247,-247 0,-137 111,-248 247,-248z"/>
  <g id="_291000432">
   <path class="fil1" d="M85 345c-52,-2 -65,-8 -61,18 15,8 44,4 64,8 5,14 15,46 19,60 -14,11 -60,18 -63,32 -3,14 1,9 4,11 9,9 19,-1 32,-6 13,-6 25,-9 36,-14l51 59c-22,26 -45,48 -68,79 -20,29 -39,59 -56,94 -28,59 -54,143 -38,212 3,14 6,19 23,17 9,-23 -41,-131 95,-313 14,-19 51,-62 66,-72 113,69 264,67 373,-5l4 12c29,94 20,241 0,334 -2,10 -22,91 -21,100 2,8 1,3 3,8 24,22 34,-67 40,-96 8,-40 14,-79 18,-122 5,-60 2,-207 -23,-252l45 -56c13,4 24,10 36,15 15,6 22,14 37,6 3,-19 -10,-20 -25,-27 -12,-6 -27,-10 -37,-16l17 -59c20,-4 52,-5 68,-11l0 -16c-17,-9 -47,0 -66,1 6,-78 -13,-94 -27,-137 -2,-8 6,-53 7,-68 2,-26 0,-54 -3,-80 -8,-73 -27,-73 -81,-40 -41,25 -57,45 -88,76 -122,-22 -69,-21 -191,-1 -34,-27 -33,-36 -88,-71 -50,-33 -66,-37 -78,37 -9,62 6,133 2,147 -6,19 -16,31 -22,58 -6,27 -6,50 -4,78zm391 -220c-21,0 -36,-15 -96,-17 -43,-2 -64,7 -101,15 -19,5 -35,-22 -66,-47 -14,-12 -53,-42 -71,-47 -16,51 -13,110 -6,166 4,25 -12,40 -19,67 -8,32 -9,52 -7,85 19,2 88,4 70,29l-66 -3c4,17 9,39 18,51 19,-4 34,-14 51,-6 4,23 -4,17 -40,28 37,63 121,113 231,110 55,-1 97,-10 139,-31 31,-15 76,-48 90,-82l-45 -11c-1,-35 32,-15 55,-10 9,-14 13,-28 17,-48 -22,1 -50,9 -69,4 -12,-44 66,-10 72,-37 10,-47 -29,-129 -28,-146 6,-59 17,-110 -2,-169 -46,13 -103,74 -127,99z"/>
   <path class="fil1" d="M236 635c-24,8 -70,96 -84,121 -15,28 -108,174 -113,192 -10,33 6,59 33,64 38,7 157,1 203,1 111,0 247,26 178,-89l-151 -256c-14,-22 -28,-44 -66,-33zm-123 355l296 0c50,0 47,-18 21,-59l-153 -257c-5,-8 -6,-14 -21,-16 -26,-2 -28,19 -49,54 -9,15 -17,27 -26,44l-104 170c-7,11 -21,31 -17,47 5,21 32,17 53,17z"/>
   <path class="fil1" d="M360 399c1,24 -1,43 -18,51 -27,12 -23,-24 -49,-14 -29,20 55,63 76,22 11,9 21,24 49,17 39,-8 42,-43 18,-37 -4,1 -58,52 -52,-40 31,-19 42,-49 -13,-51 -18,0 -38,1 -39,20 0,15 19,25 28,32z"/>
   <path class="fil1" d="M481 322c39,3 46,-34 22,-64 -40,-3 -50,29 -22,64z"/>
   <path class="fil1" d="M236 322c39,3 46,-34 22,-64 -40,-3 -50,29 -22,64z"/>
   <path class="fil2" d="M240 863l-4 -61c-1,-11 -1,-20 -1,-25 0,-7 2,-12 5,-16 4,-4 9,-6 15,-6 7,0 12,2 14,7 3,5 4,13 4,22 0,6 0,11 -1,17l-5 62c-1,7 -2,13 -4,17 -2,4 -5,6 -10,6 -4,0 -7,-2 -9,-6 -2,-4 -3,-9 -4,-17zm14 83c-5,0 -10,-2 -13,-5 -4,-4 -6,-8 -6,-14 0,-5 2,-10 5,-13 4,-4 9,-6 14,-6 5,0 10,2 13,6 4,3 6,8 6,13 0,6 -2,10 -6,14 -4,3 -8,5 -13,5z"/>
  </g>
 </g>
</svg>
