<?xml version="1.0" encoding="UTF-8"?>
<!DOCTYPE svg PUBLIC "-//W3C//DTD SVG 1.1//EN" "http://www.w3.org/Graphics/SVG/1.1/DTD/svg11.dtd">
<!-- Creator: CorelDRAW X7 -->
<svg xmlns="http://www.w3.org/2000/svg" xml:space="preserve" width="30.3764mm" height="35.7926mm" version="1.1" style="shape-rendering:geometricPrecision; text-rendering:geometricPrecision; image-rendering:optimizeQuality; fill-rule:evenodd; clip-rule:evenodd"
viewBox="0 0 7387 8705"
 xmlns:xlink="http://www.w3.org/1999/xlink">
 <defs>
  <style type="text/css">
   <![CDATA[
    .fil1 {fill:black}
    .fil0 {fill:#FFF000;fill-opacity:0.501961}
   ]]>
  </style>
 </defs>
 <g id="Layer_x0020_1">
  <metadata id="CorelCorpID_0Corel-Layer"/>
  <path class="fil0" d="M5412 4755c1091,0 1975,884 1975,1975 0,1090 -884,1975 -1975,1975 -1090,0 -1975,-885 -1975,-1975 0,-1091 885,-1975 1975,-1975z"/>
  <g id="_198496472">
   <path class="fil1" d="M508 3261c-10,1206 0,2421 2,3629 0,303 116,500 399,532l4584 1c1567,2 1312,270 1316,-2367 1,-586 -29,-1244 5,-1821 136,-13 302,18 413,-45 366,-207 -263,-598 -441,-736l-2781 -2293c-386,-342 -620,-73 -927,188 -659,562 -1689,1363 -2269,1888 -315,286 -1057,709 -725,963 103,78 288,45 424,61zm-188 -268l6688 -6 -2066 -1701c-145,-111 -275,-223 -412,-340 -147,-126 -728,-650 -871,-651 -164,-2 -644,462 -855,633l-2484 2065zm4097 1768l-2 2418 1212 0 -7 -2714c-21,-174 -106,-125 -324,-125 -1064,4 -880,-89 -879,421zm-3647 -1525c-43,986 -18,2462 -19,3489 0,299 -32,455 288,473 546,30 2483,-16 3139,-19l-3 -2156c0,-986 -214,-917 925,-921 899,-3 761,-179 762,1608l0 1472c780,-18 705,187 706,-1112l-4 -2834c-1665,-38 -3620,-10 -5293,-8l-501 8z"/>
   <path class="fil1" d="M3255 5765c85,-302 49,-908 49,-1233 0,-413 -205,-329 -822,-330 -794,0 -755,-198 -725,1348 7,360 296,257 626,257 285,1 638,23 872,-42zm-1259 -611l7 378 1027 10c16,-238 47,-912 -20,-1082 -154,-52 -657,-31 -860,-20 -223,11 -154,164 -154,714z"/>
  </g>
 </g>
</svg>
