<?xml version="1.0" encoding="UTF-8"?>
<!DOCTYPE svg PUBLIC "-//W3C//DTD SVG 1.1//EN" "http://www.w3.org/Graphics/SVG/1.1/DTD/svg11.dtd">
<!-- Creator: CorelDRAW X7 -->
<svg xmlns="http://www.w3.org/2000/svg" xml:space="preserve" width="28.1055mm" height="35.8502mm" version="1.1" style="shape-rendering:geometricPrecision; text-rendering:geometricPrecision; image-rendering:optimizeQuality; fill-rule:evenodd; clip-rule:evenodd"
viewBox="0 0 874 1115"
 xmlns:xlink="http://www.w3.org/1999/xlink">
 <defs>
  <style type="text/css">
   <![CDATA[
    .fil1 {fill:black}
    .fil0 {fill:#FFF000;fill-opacity:0.501961}
   ]]>
  </style>
 </defs>
 <g id="Layer_x0020_1">
  <metadata id="CorelCorpID_0Corel-Layer"/>
  <path class="fil0" d="M621 610c140,0 253,113 253,252 0,140 -113,253 -253,253 -139,0 -252,-113 -252,-253 0,-139 113,-252 252,-252z"/>
  <g id="_371574080">
   <path class="fil1" d="M482 101c-91,-13 -86,-20 -191,3 -16,-18 -103,-106 -146,-99 -32,26 -31,135 -25,184 5,36 -11,46 -20,79 -8,29 -10,62 -8,94 -22,1 -44,-5 -65,0 -6,31 14,20 68,26 3,22 11,40 17,58 -15,12 -84,28 -61,49 5,3 0,3 9,2 8,0 19,-8 27,-12 12,-6 25,-10 37,-15 10,12 14,20 24,31 10,13 18,18 27,29 -13,9 -24,13 -52,33 -17,13 -31,30 -44,43 -81,86 -112,239 -34,351 8,12 12,18 28,10 5,-24 -28,-34 -42,-102 -9,-44 -6,-91 6,-132 28,-95 135,-201 171,-179 127,76 303,62 393,-24 34,25 46,165 42,217 -5,69 -12,105 -25,169 -4,18 -13,40 -5,54 25,7 23,-17 27,-40 3,-20 8,-39 12,-59 19,-103 30,-211 -7,-312 -6,-15 -21,-38 -24,-49 14,-11 22,-22 30,-38 47,19 59,39 78,25 1,-28 -42,-30 -64,-48 7,-19 14,-37 19,-61 13,0 25,-2 38,-4 16,-1 31,0 32,-13 2,-23 -51,-9 -68,-7 4,-61 -4,-94 -27,-141 -8,-17 2,-49 3,-72 2,-27 1,-60 -3,-86 -10,-79 -25,-77 -84,-43 -35,21 -64,51 -93,79zm-327 -70c-18,56 -12,112 -7,172 3,29 -40,70 -31,160 26,6 54,3 74,13 1,24 -5,21 -29,17 -14,-2 -28,-2 -40,-4l14 51c10,-1 18,-3 28,-5 9,-2 23,-6 30,1 15,22 -26,24 -43,26 13,32 62,68 92,83 91,45 195,44 287,3 37,-16 80,-52 95,-83 -17,-10 -36,-2 -47,-17 -1,-31 42,-11 61,-6 7,-15 12,-30 17,-50 -59,9 -78,17 -74,-13l77 -13c15,-83 -34,-137 -30,-162 12,-62 13,-117 -4,-177 -45,11 -98,72 -124,96 -21,20 -31,-9 -113,-7 -69,1 -92,24 -108,14 -7,-5 -74,-83 -125,-99z"/>
   <path class="fil1" d="M202 799c-26,10 -58,5 -58,65 -1,42 0,84 0,127 -1,43 8,71 47,78 23,4 219,4 242,-1 41,-8 46,-35 46,-81 0,-49 10,-140 -16,-168 -13,-14 -23,-13 -44,-20 -5,-50 6,-66 -22,-105 -38,-54 -124,-62 -171,-2 -27,36 -20,59 -24,107zm27 1l163 0c15,-47 -7,-124 -81,-124 -74,0 -87,66 -82,124zm-39 27c-33,12 -23,69 -23,105 0,33 -8,98 16,111 12,6 231,7 249,1 32,-11 22,-70 22,-105 0,-35 9,-96 -18,-110 -10,-5 -232,-7 -246,-2z"/>
   <path class="fil1" d="M302 454c-7,29 37,68 83,23 1,1 2,1 2,2l19 14c34,17 74,-16 65,-31 -23,-20 -21,14 -50,9 -21,-4 -23,-31 -20,-54 14,-12 49,-43 7,-53 -25,-6 -79,-2 -54,31 6,8 40,25 15,63 -6,10 -17,20 -32,10 -16,-9 -7,-21 -35,-14z"/>
   <path class="fil1" d="M297 947c0,15 -7,48 12,52 21,4 15,-31 15,-47 10,-9 25,-15 24,-36 -1,-19 -15,-29 -34,-30 -44,-3 -57,44 -17,61z"/>
   <path class="fil1" d="M500 275c-12,6 -18,25 -13,43 3,14 18,27 36,19 26,-12 16,-79 -23,-62z"/>
   <path class="fil1" d="M251 275c-13,6 -19,25 -14,43 4,14 18,27 36,19 26,-12 16,-79 -22,-62z"/>
  </g>
 </g>
</svg>
