<?xml version="1.0" encoding="UTF-8"?>
<!DOCTYPE svg PUBLIC "-//W3C//DTD SVG 1.1//EN" "http://www.w3.org/Graphics/SVG/1.1/DTD/svg11.dtd">
<!-- Creator: CorelDRAW X7 -->
<svg xmlns="http://www.w3.org/2000/svg" xml:space="preserve" width="26.8324mm" height="35.9514mm" version="1.1" style="shape-rendering:geometricPrecision; text-rendering:geometricPrecision; image-rendering:optimizeQuality; fill-rule:evenodd; clip-rule:evenodd"
viewBox="0 0 3677 4927"
 xmlns:xlink="http://www.w3.org/1999/xlink">
 <defs>
  <style type="text/css">
   <![CDATA[
    .fil1 {fill:black}
    .fil0 {fill:#FFF000;fill-opacity:0.501961}
   ]]>
  </style>
 </defs>
 <g id="Layer_x0020_1">
  <metadata id="CorelCorpID_0Corel-Layer"/>
  <path class="fil0" d="M2564 2701c615,0 1113,498 1113,1113 0,615 -498,1113 -1113,1113 -614,0 -1113,-498 -1113,-1113 0,-615 499,-1113 1113,-1113z"/>
  <g id="_198498056">
   <path class="fil1" d="M528 1565c-94,-6 -208,-25 -292,-8l-10 80c81,36 222,30 323,38 18,89 47,155 82,232 -333,42 -344,225 -198,177 24,-8 56,-24 84,-33 53,-18 110,-39 171,-43 31,31 54,66 83,101 36,44 62,66 95,103 -602,208 -867,651 -866,1296 1,676 368,878 1003,878 170,0 483,24 567,-83 57,-73 92,-296 -256,-321 57,-350 107,-674 -245,-883 -71,-43 -215,-102 -294,-50l-3 62c152,88 626,40 426,865 -96,4 -174,-19 -210,61 62,131 316,-43 513,123 -6,135 -126,123 -255,123 -445,-2 -789,25 -1000,-261 -252,-341 -153,-1114 188,-1427 155,-141 261,-235 500,-286 65,-14 47,-13 101,23 342,228 938,266 1330,123 54,-20 99,-49 147,-59 31,323 52,459 17,796 -14,136 -129,723 -32,781 52,30 202,28 249,151 62,159 -112,168 -242,168 -586,-1 -453,-528 -476,-1074l-85 -3c-24,74 -14,439 -14,522 0,409 137,658 546,660 186,-1 372,-9 387,-204 6,-92 -43,-172 -87,-213 -63,-60 -114,-62 -200,-97 -3,-8 -4,0 -4,-29l74 -734c24,-265 19,-532 -36,-783 145,-92 222,-185 324,-319 163,55 341,189 331,61 -3,-38 0,-19 -19,-39 -35,-37 -198,-85 -255,-119l86 -252c89,-13 234,-7 298,-36l5 -70c-69,-27 -203,-15 -288,-5 12,-400 -58,-387 -120,-617 -10,-39 39,-366 -6,-667 -47,-326 -147,-315 -381,-161 -170,111 -272,222 -395,343 -316,-94 -486,-64 -798,-10 -74,-103 -255,-258 -384,-345 -242,-164 -320,-142 -367,171 -18,119 -26,213 -26,334 -1,75 21,295 4,344 -73,217 -131,350 -90,615zm110 6c70,12 134,16 204,24 86,10 145,28 98,106 -72,23 -190,-11 -273,-15 8,61 53,157 87,197 68,-20 174,-42 233,-17l7 74c-51,24 -120,34 -183,40 268,447 1114,573 1613,333 157,-75 329,-194 395,-336 -103,-21 -196,-2 -188,-116 88,-44 141,5 245,17 38,-53 60,-123 78,-199 -95,6 -218,46 -297,19l-4 -84 312 -49c93,-239 -131,-569 -116,-697 31,-258 48,-489 -41,-746 -136,35 -353,240 -441,319 -61,55 -94,158 -216,120 -106,-34 -215,-53 -333,-54 -118,-1 -221,12 -334,38 -209,50 -157,-35 -453,-281 -49,-41 -165,-131 -244,-144 -63,227 -63,501 -44,748 13,152 -162,311 -105,703z"/>
   <path class="fil1" d="M1707 1792c11,210 -108,267 -185,211 -53,-37 -8,-57 -105,-53 -83,119 100,226 240,169 55,-22 55,-42 98,-75 42,90 323,136 370,10 26,-70 -32,-89 -81,-67 -34,15 -17,26 -71,34 -149,23 -204,-145 -145,-232 21,-32 90,-65 110,-107 67,-146 -177,-155 -275,-132 -189,44 20,211 44,242z"/>
   <path class="fil1" d="M1197 1154c-123,34 -108,327 60,283 136,-35 96,-326 -60,-283z"/>
   <path class="fil1" d="M2278 1174c-55,24 -82,109 -60,188 17,61 79,119 158,84 117,-51 73,-349 -98,-272z"/>
  </g>
 </g>
</svg>
