<?xml version="1.0" encoding="UTF-8"?>
<!DOCTYPE svg PUBLIC "-//W3C//DTD SVG 1.1//EN" "http://www.w3.org/Graphics/SVG/1.1/DTD/svg11.dtd">
<!-- Creator: CorelDRAW X7 -->
<svg xmlns="http://www.w3.org/2000/svg" xml:space="preserve" width="28.0078mm" height="36.0289mm" version="1.1" style="shape-rendering:geometricPrecision; text-rendering:geometricPrecision; image-rendering:optimizeQuality; fill-rule:evenodd; clip-rule:evenodd"
viewBox="0 0 1485 1910"
 xmlns:xlink="http://www.w3.org/1999/xlink">
 <defs>
  <style type="text/css">
   <![CDATA[
    .fil1 {fill:black}
    .fil0 {fill:#FFF000;fill-opacity:0.501961}
   ]]>
  </style>
 </defs>
 <g id="Layer_x0020_1">
  <metadata id="CorelCorpID_0Corel-Layer"/>
  <path class="fil0" d="M1055 1049c237,0 430,193 430,431 0,238 -193,430 -430,430 -238,0 -431,-192 -431,-430 0,-238 193,-431 431,-431z"/>
  <g id="_379022104">
   <path class="fil1" d="M107 631c-23,-1 -120,-19 -105,26 7,23 84,11 112,23 10,39 19,66 30,101 -26,18 -143,42 -109,81 0,0 -2,17 31,2 26,-12 60,-34 101,-40 26,59 120,147 188,173 -4,24 -15,47 -22,71 -8,26 -15,51 -21,79 -36,161 -44,273 -51,435 -2,42 -12,73 35,68 10,-25 22,-274 30,-335 16,-114 42,-195 69,-296 28,7 61,22 95,31 37,10 74,17 114,20 53,3 220,9 201,-54 -8,-9 -114,14 -190,9 -154,-10 -348,-89 -404,-217 13,-2 124,-14 79,-51 -28,-13 -72,9 -105,11l-27 -85c40,4 120,26 146,13l3 -28c-40,-20 -104,-22 -154,-33 -13,-157 59,-235 57,-273 -5,-123 -31,-162 2,-311 52,9 175,95 198,122 85,98 52,19 249,20 47,0 101,7 143,19 70,22 57,7 98,-32 59,-55 102,-95 191,-133 39,58 22,234 9,307 -6,32 28,82 39,123 16,58 18,98 17,160 -29,5 -144,8 -151,35 -10,35 35,25 59,22 23,-4 62,-10 84,-9 -3,27 -14,68 -30,89 -37,-4 -75,-29 -111,-17 -10,31 -7,36 27,42 22,5 41,11 62,15 -21,42 -51,75 -99,94 -25,9 -38,17 -62,32 -10,7 -22,14 -30,20 -42,33 -78,89 -94,150 -20,76 1,107 4,174l-167 149c-30,28 -58,49 -79,76 -29,37 -28,89 -1,121 93,111 208,-48 288,-116l41 -36c14,-13 31,-29 44,-39 197,93 389,5 442,-167 65,-208 -101,-375 -281,-386 6,-13 26,-38 38,-54 43,3 104,55 137,35 28,-37 -91,-70 -117,-76 18,-43 24,-66 37,-114 34,-2 85,0 109,-13 3,-46 -20,-35 -104,-30 2,-139 -16,-153 -51,-251 -10,-27 6,-96 8,-133 2,-47 4,-237 -53,-249 -82,-17 -252,161 -270,174 -131,-50 -229,-22 -359,-3 -78,-71 -68,-71 -169,-131 -97,-58 -136,-65 -152,71 -6,51 9,253 3,268 -37,84 -58,140 -52,251zm797 780c-12,-15 -24,-23 -38,-41 -10,-12 -18,-32 -29,-45l-142 128c-46,42 -139,95 -94,149 57,68 127,-34 196,-92l107 -99zm165 -483c-331,49 -286,547 65,509 125,-13 242,-141 219,-289 -18,-118 -141,-242 -284,-220z"/>
   <path class="fil1" d="M521 792c-47,60 87,105 133,39 124,88 181,-55 118,-38 -1,0 -100,93 -95,-59 19,-15 91,-69 32,-92 -34,-13 -133,-17 -120,36 9,34 80,49 41,118 -8,15 -25,32 -53,28 -30,-6 -21,-31 -56,-32z"/>
   <path class="fil1" d="M418 482c-10,6 -3,-2 -14,10 -34,39 5,132 61,95 47,-30 17,-146 -47,-105z"/>
   <path class="fil1" d="M855 487c-17,7 -19,1 -27,26 -17,56 29,97 70,76 51,-25 29,-135 -43,-102z"/>
  </g>
 </g>
</svg>
